<!DOCTYPE svg PUBLIC "-//W3C//DTD SVG 1.1//EN" "http://www.w3.org/Graphics/SVG/1.1/DTD/svg11.dtd">
<!-- Uploaded to: SVG Repo, www.svgrepo.com, Transformed by: SVG Repo Mixer Tools -->
<svg width="64px" height="64px" viewBox="-1.44 -1.44 26.88 26.88" xmlns="http://www.w3.org/2000/svg" fill="#000000" stroke="#000000" stroke-width="0.00024000000000000003" transform="matrix(1, 0, 0, 1, 0, 0)">
<g id="SVGRepo_bgCarrier" stroke-width="0"/>
<g id="SVGRepo_tracerCarrier" stroke-linecap="round" stroke-linejoin="round" stroke="#CCCCCC" stroke-width="0.144"/>
<g id="SVGRepo_iconCarrier">
<path d="M12 22.943C3.533 18.32 2.498 12.026 3.16 4.723l.08-.869.871-.042c3.31-.166 5.668-.934 7.21-2.35L12 .838l.68.624c1.54 1.416 3.9 2.184 7.21 2.35l.87.042.08.869c.666 7.34-.407 13.61-8.84 18.22zM4.16 4.811c-.543 5.988-.04 12.694 7.838 16.993 7.88-4.3 8.39-11.001 7.845-16.99-3.553-.178-6.12-1.036-7.84-2.616-1.72 1.58-4.29 2.435-7.842 2.613z"/>
<path fill="none" d="M0 0h24v24H0z"/>
</g>
</svg>